<svg xmlns="http://www.w3.org/2000/svg" viewBox="0 0 48 48"><defs><style>.cls-1{fill:#9dcc6b;}.cls-2{fill:#b5e08c;}.cls-3{fill:#84b749;}.cls-4{fill:#edebf2;}.cls-5{fill:#dad7e5;}</style></defs><title>Money</title><g id="Money"><rect class="cls-1" x="1" y="10" width="46" height="28"/><path class="cls-2" d="M11,10H47a0,0,0,0,1,0,0V36a0,0,0,0,1,0,0H15a4,4,0,0,1-4-4V10a0,0,0,0,1,0,0Z"/><path class="cls-3" d="M43,18V30a4,4,0,0,0-4,4H9a4,4,0,0,0-4-4V18a4,4,0,0,0,4-4H39A4,4,0,0,0,43,18Z"/><path class="cls-1" d="M43,18V30a4,4,0,0,0-4,4H15a4,4,0,0,1-4-4V14H39A4,4,0,0,0,43,18Z"/><circle class="cls-4" cx="24" cy="24" r="5"/><path class="cls-4" d="M13,25H11V23h2A1,1,0,0,1,13,25Z"/><path class="cls-5" d="M11,23v2H9a1,1,0,0,1,0-2Z"/><path class="cls-4" d="M39,25H35a1,1,0,0,1,0-2h4A1,1,0,0,1,39,25Z"/></g></svg>